<svg width="233" height="216" viewBox="0 0 233 216" fill="none" xmlns="http://www.w3.org/2000/svg">
<g clip-path="url(#clip0_103_33)">
<rect y="-1" width="233" height="217" rx="22" fill="#473569"/>
<path d="M39.696 118.704H53.392L73.104 170.672C74.2133 173.659 75.2373 176.432 76.176 178.992C77.1147 181.467 77.9253 183.685 78.608 185.648C79.4613 187.867 80.1867 189.915 80.784 191.792H81.04C81.552 189.915 82.192 187.867 82.96 185.648C83.6427 183.685 84.4107 181.467 85.264 178.992C86.1173 176.432 87.1413 173.659 88.336 170.672L108.432 118.704H122.128L126.608 206H115.728L113.552 158C113.381 153.819 113.253 150.277 113.168 147.376C113.083 144.475 113.04 142.085 113.04 140.208V134.832H112.784C112.272 136.112 111.632 137.861 110.864 140.08C110.181 141.957 109.285 144.389 108.176 147.376C107.152 150.277 105.872 153.819 104.336 158L86.288 206H75.408L57.232 158C55.6107 153.904 54.288 150.405 53.264 147.504C52.24 144.517 51.3867 142.085 50.704 140.208C49.936 137.989 49.3387 136.197 48.912 134.832H48.656C48.7413 136.197 48.8267 137.989 48.912 140.208C48.9973 143.792 48.8693 149.723 48.528 158L45.968 206H35.088L39.696 118.704ZM147.139 118.704H157.891V159.024L194.499 118.704H207.939L174.403 155.312L213.059 206H199.619L166.979 163.248L157.891 173.232V206H147.139V118.704Z" fill="#FFCDEA"/>
</g>
<defs>
<clipPath id="clip0_103_33">
<rect width="233" height="216" fill="white"/>
</clipPath>
</defs>
</svg>


